<?xml version="1.0" encoding="UTF-8"?><svg id="Layer_2" xmlns="http://www.w3.org/2000/svg" viewBox="0 0 202.3 68.8"><defs><style>.cls-1{fill:#fff;}.cls-2{fill:#326599;}.cls-3{fill:#999;}.cls-4{fill:#00008b;}</style></defs><g id="Layer_1-2"><path class="cls-2" d="m91.72,63.8h0c6-25,38,5,38,5V25.8s-32-27-38-2h0v40Z"/><path d="m91.74,63.8h0c-3.47-20.93-15.56-15.78-15.56-15.78l-.35-43.91s9.2-3.16,15.96,18.11h0l-.06,41.58Z"/><path class="cls-3" d="m91.82,64.01h0c-.96-25.76-8.02-24.16-8.02-24.16l-.83-39.85s7.88,4.06,9.02,19.98h0l-.18,44.03Z"/><g><g><path class="cls-4" d="m21.87,31.91c0,3.1-.93,5.41-2.79,6.92-1.86,1.52-4.53,2.27-8,2.27h-4.08v13.25H0v-31.62h11.02c3.34,0,5.98.76,7.93,2.27,1.95,1.52,2.92,3.82,2.92,6.9Zm-7,.92c0-1.57-.42-2.74-1.27-3.51-.85-.77-2.03-1.15-3.56-1.15h-3.05v9.44h3.23c1.61,0,2.79-.43,3.53-1.28s1.12-2.02,1.12-3.5Z"/><path class="cls-4" d="m45.8,54.36h-6.31v-2.53l-2.61,1.48c-.73.41-1.49.73-2.28.96-.79.23-1.65.34-2.57.34-2.18,0-3.9-.67-5.15-2.03-1.25-1.35-1.88-3.14-1.88-5.36v-14.99h6.31v13.56c0,.81.29,1.52.86,2.14.57.62,1.46.92,2.65.92,1.11,0,2.06-.24,2.85-.71.79-.48,1.4-.91,1.83-1.31v-14.6h6.31v22.12Z"/><path class="cls-4" d="m72.75,42.85c0,3.38-1.04,6.19-3.11,8.44-2.07,2.25-4.68,3.38-7.83,3.38-1.13,0-2.27-.16-3.44-.47-1.16-.31-2.02-.68-2.57-1.1l-3.54,1.56-1.52-.81v-31.12h6.19v10.56l2.37-1.15c.47-.22.99-.43,1.57-.62.58-.19,1.22-.29,1.94-.29,3.11,0,5.54,1.1,7.3,3.29,1.75,2.19,2.63,4.97,2.63,8.33Zm-6.37.4c0-1.84-.5-3.43-1.5-4.77-1-1.33-2.28-2-3.82-2-.95,0-1.8.16-2.57.46-.77.31-1.28.7-1.54,1.16v10.5c.34.38.87.69,1.59.94.72.25,1.53.37,2.42.37,1.95,0,3.34-.53,4.17-1.6.84-1.07,1.25-2.75,1.25-5.07Z"/></g><g><path class="cls-2" d="m21.87,31.91c0,3.1-.93,5.41-2.79,6.92-1.86,1.52-4.53,2.27-8,2.27h-4.08v13.25H0v-31.62h11.02c3.34,0,5.98.76,7.93,2.27,1.95,1.52,2.92,3.82,2.92,6.9Zm-7,.92c0-1.57-.42-2.74-1.27-3.51-.85-.77-2.03-1.15-3.56-1.15h-3.05v9.44h3.23c1.61,0,2.79-.43,3.53-1.28s1.12-2.02,1.12-3.5Z"/><path class="cls-2" d="m45.8,54.36h-6.31v-2.53l-2.61,1.48c-.73.41-1.49.73-2.28.96-.79.23-1.65.34-2.57.34-2.18,0-3.9-.67-5.15-2.03-1.25-1.35-1.88-3.14-1.88-5.36v-14.99h6.31v13.56c0,.81.29,1.52.86,2.14.57.62,1.46.92,2.65.92,1.11,0,2.06-.24,2.85-.71.79-.48,1.4-.91,1.83-1.31v-14.6h6.31v22.12Z"/><path class="cls-2" d="m72.75,42.85c0,3.38-1.04,6.19-3.11,8.44-2.07,2.25-4.68,3.38-7.83,3.38-1.13,0-2.27-.16-3.44-.47-1.16-.31-2.02-.68-2.57-1.1l-3.54,1.56-1.52-.81v-31.12h6.19v10.56l2.37-1.15c.47-.22.99-.43,1.57-.62.58-.19,1.22-.29,1.94-.29,3.11,0,5.54,1.1,7.3,3.29,1.75,2.19,2.63,4.97,2.63,8.33Zm-6.37.4c0-1.84-.5-3.43-1.5-4.77-1-1.33-2.28-2-3.82-2-.95,0-1.8.16-2.57.46-.77.31-1.28.7-1.54,1.16v10.5c.34.38.87.69,1.59.94.72.25,1.53.37,2.42.37,1.95,0,3.34-.53,4.17-1.6.84-1.07,1.25-2.75,1.25-5.07Z"/></g></g><g><g><path class="cls-4" d="m155.37,44.23h-16.37c.34,1.79,1.05,3.08,2.12,3.87,1.07.79,2.37,1.19,3.9,1.19,1.23,0,2.59-.18,4.08-.53,1.49-.36,2.66-.82,3.52-1.4v5.56c-.81.58-2.03,1.03-3.65,1.37-1.62.34-2.93.5-3.92.5-3.91,0-6.96-1.07-9.15-3.2-2.19-2.13-3.29-4.99-3.29-8.57s1.12-6.51,3.36-8.73c2.24-2.21,5.04-3.32,8.4-3.32s6.03,1.18,8.03,3.54c1.99,2.36,2.98,5.6,2.97,9.71Zm-5.81-3c-.31-1.65-.94-2.9-1.89-3.74-.95-.84-2.12-1.26-3.52-1.26-1.63,0-2.87.46-3.7,1.36-.83.91-1.33,2.12-1.51,3.64h10.62Z"/><path class="cls-4" d="m179.47,54.36h-4.81l-1.31-2-3.32,1.8c-.28.15-.67.26-1.2.34-.52.07-.98.11-1.36.11-3.24,0-5.71-1.09-7.39-3.27-1.68-2.18-2.53-4.92-2.55-8.22-.01-3.57,1-6.41,3.04-8.52,2.04-2.11,4.73-3.17,8.08-3.17.96,0,1.8.08,2.53.23.73.15,1.43.42,2.1.8v-9.72h6.19v31.62Zm-6.19-6.81v-9.78c-.34-.41-.91-.77-1.7-1.08-.79-.3-1.65-.45-2.58-.45-1.72,0-3,.5-3.84,1.51-.84,1.01-1.26,2.61-1.26,4.81s.45,3.91,1.34,5.02c.89,1.11,2.1,1.66,3.63,1.66.98,0,1.85-.17,2.59-.5.74-.33,1.35-.73,1.81-1.19Z"/></g><g><path class="cls-2" d="m155.37,44.23h-16.37c.34,1.79,1.05,3.08,2.12,3.87,1.07.79,2.37,1.19,3.9,1.19,1.23,0,2.59-.18,4.08-.53,1.49-.36,2.66-.82,3.52-1.4v5.56c-.81.58-2.03,1.03-3.65,1.37-1.62.34-2.93.5-3.92.5-3.91,0-6.96-1.07-9.15-3.2-2.19-2.13-3.29-4.99-3.29-8.57s1.12-6.51,3.36-8.73c2.24-2.21,5.04-3.32,8.4-3.32s6.03,1.18,8.03,3.54c1.99,2.36,2.98,5.6,2.97,9.71Zm-5.81-3c-.31-1.65-.94-2.9-1.89-3.74-.95-.84-2.12-1.26-3.52-1.26-1.63,0-2.87.46-3.7,1.36-.83.91-1.33,2.12-1.51,3.64h10.62Z"/><path class="cls-2" d="m179.47,54.36h-4.81l-1.31-2-3.32,1.8c-.28.15-.67.26-1.2.34-.52.07-.98.11-1.36.11-3.24,0-5.71-1.09-7.39-3.27-1.68-2.18-2.53-4.92-2.55-8.22-.01-3.57,1-6.41,3.04-8.52,2.04-2.11,4.73-3.17,8.08-3.17.96,0,1.8.08,2.53.23.73.15,1.43.42,2.1.8v-9.72h6.19v31.62Zm-6.19-6.81v-9.78c-.34-.41-.91-.77-1.7-1.08-.79-.3-1.65-.45-2.58-.45-1.72,0-3,.5-3.84,1.51-.84,1.01-1.26,2.61-1.26,4.81s.45,3.91,1.34,5.02c.89,1.11,2.1,1.66,3.63,1.66.98,0,1.85-.17,2.59-.5.74-.33,1.35-.73,1.81-1.19Z"/></g></g><path class="cls-1" d="m126.17,51.38h-6.13l-2.96-15.04-5.46,12.92h-2.78l-4.93-12.33-2.96,14.45h-5.81l5.98-26.92h2.3l7.14,15.88,7.13-15.88h2.48l5.99,26.92Z"/><path class="cls-3" d="m202.3,22.13c0,4.46-3.5,7.97-8.06,7.97s-8.11-3.5-8.11-7.97,3.6-7.87,8.11-7.87,8.06,3.5,8.06,7.87Zm-14.16,0c0,3.5,2.59,6.29,6.14,6.29s6-2.78,6-6.24-2.54-6.34-6.05-6.34-6.1,2.83-6.1,6.29Zm4.85,4.13h-1.82v-7.87c.72-.14,1.73-.24,3.02-.24,1.49,0,2.16.24,2.74.58.43.34.77.96.77,1.73,0,.86-.67,1.54-1.63,1.82v.1c.77.29,1.2.86,1.44,1.92.24,1.2.38,1.68.58,1.97h-1.97c-.24-.29-.38-1.01-.62-1.92-.14-.86-.62-1.25-1.63-1.25h-.86v3.17Zm.05-4.46h.86c1.01,0,1.82-.34,1.82-1.15,0-.72-.53-1.2-1.68-1.2-.48,0-.82.05-1.01.1v2.26Z"/></g></svg>
