<svg width="124" height="17" xmlns="http://www.w3.org/2000/svg"><path d="M34.603 8.89c.227-1.278 1.018-2.647 2.61-2.647 1.389 0 2.02 1.25 2.02 2.41 0 .186-.03.237-.246.237h-4.384zM37.3 4.768c-2.915 0-5.03 2.565-5.03 6.101 0 3.597 1.92 5.746 5.137 5.746 1.722 0 3.112-.77 3.546-1.496l.043-.073-.117-.997-.32.164c-.768.394-1.691.594-2.74.594-2.464 0-3.34-2.138-3.34-4.138 0-.124 0-.257.005-.392h6.966l.032-.213c.047-.307.047-.54.047-.836 0-2.148-1.324-4.46-4.23-4.46zm73.136-2.327h-1.134l-.05.185c-.332 1.225-.766 2.03-2.106 2.771l-.13.071v1.107h1.32v7.174c0 2.01.78 2.865 2.608 2.865 1.09 0 2.22-.463 2.572-1.052l.048-.082-.16-.825-.275.1a5.008 5.008 0 01-1.494.251c-.776 0-1.199-.26-1.199-1.634V6.575h3.136v-1.54h-3.136V2.44zm-62.409 8.973c-.02.612-.053 1.868-.056 2.595-.38.408-1.079.82-1.978.82-.94 0-1.523-.575-1.523-1.5 0-1.275 1-1.922 2.973-1.922h.03c.158 0 .367 0 .554.007m2.066 2.535c0-1.03.023-1.978.046-2.891.021-.856.041-1.681.041-2.516 0-2.398-1.424-3.774-3.905-3.774-1.267 0-2.599.688-3.155 1.354l-.074.087.186 1.107.31-.174c.678-.381 1.445-.566 2.343-.566 1.503 0 2.173.73 2.173 2.365v1.024c-.31-.011-.684-.011-.918-.011-2.925 0-4.814 1.438-4.814 3.663 0 1.766 1.268 2.998 3.083 2.998 1.17 0 2.181-.6 2.747-1.187.213.737.854 1.187 1.752 1.187.68 0 1.38-.173 1.782-.441l.112-.074v-1.004h-.25c-1.257 0-1.459-.273-1.459-1.147m8.943-9.181c-.74 0-1.778.502-2.475 1.146V4.52l-.353.16c-1.057.476-1.82.71-2.974 1.051l-.18.054v.922l.2.041c1.206.247 1.206.337 1.206 1.44v5.406c0 1.437-.17 1.467-.502 1.526l-.925.144v1.094l.26-.01c.164-.007.354-.017.562-.029a28.621 28.621 0 011.634-.059c.62 0 1.44.038 2.04.067l.74.031v-1.104l-1.21-.135c-.3-.04-.498-.07-.498-1.525v-6.15c.583-.448 1.338-.713 2.042-.713.415 0 .888.075 1.076.172l.32.164.24-2.105-.211-.053a3.677 3.677 0 00-.992-.14m9.764 9.395c-.606.415-1.447.644-2.367.644-2.207 0-3.578-1.594-3.578-4.161 0-2.606 1.284-4.425 3.124-4.425 1.228 0 1.78.558 1.847 1.867l.013.238h1.31v-.25c0-.745.022-1.794.085-2.505l.016-.19-.18-.066a8.613 8.613 0 00-2.961-.548c-3 0-5.441 2.737-5.441 6.1 0 3.545 1.985 5.747 5.18 5.747 1.65 0 2.969-.776 3.418-1.543l.047-.08-.197-1.045-.316.217zm33.686-2.75a110.96 110.96 0 00-.055 2.595c-.38.408-1.079.82-1.977.82-.94 0-1.524-.575-1.524-1.5 0-1.275 1-1.922 2.973-1.922h.03c.157 0 .366 0 .553.007m2.067 2.535c0-1.03.024-1.978.046-2.891.021-.856.041-1.681.041-2.516 0-2.398-1.424-3.774-3.905-3.774-1.267 0-2.599.688-3.155 1.353l-.074.088.186 1.107.31-.174c.68-.381 1.445-.566 2.343-.566 1.502 0 2.172.73 2.172 2.365v1.024c-.31-.011-.683-.011-.918-.011-2.924 0-4.813 1.438-4.813 3.663 0 1.766 1.268 2.998 3.084 2.998 1.17 0 2.181-.6 2.747-1.187.212.736.853 1.187 1.751 1.187.69 0 1.372-.17 1.782-.441l.112-.074v-1.004h-.25c-1.257 0-1.459-.273-1.459-1.147m-24.05-.355V8.807c0-1.734-.366-4.039-3.537-4.039-1.037 0-2.098.556-2.843 1.142V0l-.364.186c-1.034.53-1.81.84-2.964 1.18l-.18.052v.923l.2.041c1.208.247 1.208.337 1.208 1.44v9.772c0 1.437-.17 1.467-.502 1.525l-.926.145v1.094l.609-.025c.512-.022 1.172-.05 1.847-.05.678 0 1.399.03 1.932.052l.567.023v-1.094l-.918-.144c-.317-.058-.51-.093-.51-1.526V7.325c.387-.243 1.306-.75 2.26-.75 1.492 0 2.02.648 2.02 2.476v4.543c0 1.437-.17 1.467-.502 1.525l-.925.145v1.094l.608-.025c.513-.022 1.174-.05 1.848-.05.676 0 1.398.03 1.93.052l.57.023v-1.094l-.918-.144c-.32-.058-.51-.093-.51-1.526m36.072-4.704c.226-1.278 1.018-2.647 2.608-2.647 1.39 0 2.022 1.25 2.022 2.41 0 .186-.03.237-.248.237h-4.382zm2.695-4.122c-2.915 0-5.03 2.565-5.03 6.101 0 3.597 1.921 5.746 5.14 5.746 1.72 0 3.11-.77 3.544-1.496l.043-.073-.116-.997-.32.164c-.769.394-1.692.594-2.742.594-2.463 0-3.34-2.138-3.34-4.138 0-.124 0-.257.005-.392h6.97l.03-.213c.046-.307.046-.54.046-.836 0-2.148-1.323-4.46-4.23-4.46zM93.382 9.71c-1.07 0-1.878-.036-2.412-.059l-.455-.018v1.11l1.022.194c.353.07.686.135.686 1.505V14.8c-.68.35-1.734.405-2.323.405-2.74 0-4.51-2.354-4.51-5.998 0-3.589 1.82-6 4.53-6 1.747 0 2.78.94 2.909 2.65l.018.23h1.344l-.02-.268c-.088-1.204-.108-2.196-.13-3.155l-.003-.171-.16-.058c-.801-.292-2.077-.68-3.914-.68-4.03 0-6.954 3.199-6.954 7.606 0 4.433 2.61 7.297 6.65 7.297 1.909 0 3.825-.452 4.577-.774l.152-.065v-3.4c0-1.31.218-1.42.598-1.505l.873-.173V9.633l-.597.026c-.491.022-1.103.05-1.881.05M14.987 8.89c.226-1.278 1.018-2.647 2.609-2.647 1.389 0 2.02 1.25 2.02 2.41 0 .186-.03.237-.246.237h-4.383zm2.696-4.122c-2.915 0-5.03 2.565-5.03 6.101 0 3.597 1.92 5.746 5.138 5.746 1.72 0 3.11-.77 3.545-1.496l.044-.073-.117-.997-.32.164c-.77.394-1.692.594-2.741.594-2.463 0-3.34-2.138-3.34-4.138 0-.124 0-.257.005-.392h6.967l.032-.213c.046-.307.046-.54.046-.836 0-2.148-1.323-4.46-4.23-4.46zm9.729 4.672c-1.318-.516-2.126-.878-2.126-1.807 0-1.267 1.185-1.456 1.891-1.456 1.27 0 1.855.574 1.957 1.918l.018.231h1.3l-.019-.267c-.064-.938-.085-1.515-.043-2.453l.008-.176-.163-.067c-.7-.288-1.85-.595-2.97-.595-2.3 0-3.907 1.306-3.907 3.175 0 2.366 1.804 3.024 3.254 3.554 1.348.492 2.175.846 2.175 1.876 0 1.073-.81 1.766-2.064 1.766-1.67 0-2.054-.715-2.239-2.218l-.027-.219H23.17l.017.265c.064 1.036.107 1.85.064 2.877l-.007.189.178.059c1.071.357 2.127.523 3.324.523 2.238 0 3.991-1.541 3.991-3.508 0-2.368-1.843-3.089-3.324-3.667M8.024 5.971c0 1.65-1.09 2.675-2.843 2.675-.607 0-.926-.015-1.307-.046V3.5c.454-.027 1.006-.027 1.502-.027 1.708 0 2.648.887 2.648 2.498m2.513 8.21c-1.072-1.198-2.217-2.816-3.102-4.378C9.1 9.25 10.362 7.578 10.362 5.86c0-2.432-1.718-3.884-4.597-3.884-.687 0-1.3.02-1.867.037-.486.015-.938.03-1.377.03-.848 0-1.725 0-2.261-.023L0 2.01v1.11l1.024.193c.352.07.685.135.685 1.506v8.731c0 1.37-.333 1.436-.684 1.504L0 15.248v1.11l.514-.02c.588-.022 1.476-.056 2.353-.056.986 0 2.258.045 2.759.066l.259.01v-1.12l-1.337-.185c-.347-.053-.674-.102-.674-1.503v-3.433c.388.024.767.026 1.268.026 1.338 2.432 2.579 4.202 3.24 4.983.735.903 1.833 1.4 3.093 1.4.414 0 .836-.077 1.1-.2l.145-.069v-.985h-.25c-.6 0-1.305-.398-1.933-1.09" fill="#FFF" fill-rule="evenodd"/></svg>